<svg width="40" height="40" viewBox="0 0 40 40" fill="none" xmlns="http://www.w3.org/2000/svg">
<path d="M37.9363 7.59041H27.1162L28.063 6.76753C28.1325 6.70713 28.1947 6.63952 28.2488 6.56589C29.6323 4.68294 29.1797 2.0585 27.2396 0.715545C26.3145 0.0752026 25.1492 -0.149692 24.0424 0.0992555C22.9354 0.347936 21.9904 1.04667 21.4492 2.01614L19.5999 5.32997L17.7505 2.01614C17.2093 1.04654 16.2642 0.347669 15.1574 0.0991219C14.0503 -0.149692 12.885 0.0750691 11.9601 0.715412C10.0203 2.05837 9.56756 4.68281 10.9509 6.56575C11.0052 6.63952 11.0675 6.70713 11.1368 6.7674L12.0835 7.59027H1.26374C0.565794 7.59027 0 8.13948 0 8.81697V16.5946C0 17.2721 0.565794 17.8213 1.26374 17.8213H1.59854V38.7733C1.59854 39.4508 2.16433 40 2.86228 40H36.3377C37.0357 40 37.6015 39.4508 37.6015 38.7733V17.8213H37.9363C38.6342 17.8213 39.2 17.2721 39.2 16.5946V8.81711C39.2 8.13962 38.6341 7.59041 37.9363 7.59041ZM23.6716 3.18471C23.8707 2.82779 24.2048 2.58085 24.6123 2.48932C24.7227 2.46446 24.8332 2.4523 24.9428 2.4523C25.2377 2.4523 25.5239 2.54103 25.7721 2.71287C26.1622 2.98294 26.4205 3.38408 26.4997 3.84296C26.5719 4.26255 26.4864 4.68388 26.2586 5.04253L23.3271 7.59041H21.213L23.6716 3.18471ZM12.7001 3.84309C12.7791 3.38449 13.0375 2.98307 13.4278 2.71301C13.7682 2.47729 14.1798 2.39778 14.5876 2.48945C14.9949 2.58085 15.329 2.82793 15.5282 3.18485L17.9869 7.59041H15.8728L12.9411 5.04253C12.7133 4.68401 12.6278 4.26242 12.7001 3.84309ZM14.897 37.5467H4.12589V17.8215H14.897V37.5467ZM21.7752 37.5467H17.4245V17.8215H21.7752V37.5467ZM35.074 37.5467H24.3028V17.8215H35.074V37.5467ZM36.6725 15.3681H2.52735V10.0438H36.6724L36.6725 15.3681Z" fill="#C8583F"/>
</svg>
