<svg width="39" height="39" viewBox="0 0 39 39" fill="none" xmlns="http://www.w3.org/2000/svg">
<path d="M35.6903 5.72516H34.4013L32.4056 0L16.6867 5.72516H3.30967C1.48475 5.72516 0 7.24281 0 9.1082V35.6169C0 37.4823 1.48475 39 3.30967 39H35.6903C37.5153 39 39 37.4823 39 35.6169V9.1082C39.0001 7.24281 37.5153 5.72516 35.6903 5.72516ZM31.0006 3.02589L31.9416 5.72524H23.5896L31.0006 3.02589ZM36.6832 35.617C36.6832 36.1765 36.2378 36.6318 35.6904 36.6318H3.30967C2.76223 36.6318 2.31692 36.1765 2.31692 35.617V9.1082C2.31692 8.54861 2.7623 8.09344 3.30967 8.09344H35.6903C36.2378 8.09344 36.6831 8.54869 36.6831 9.1082V17.2836H25.5456C23.7206 17.2836 22.2359 18.8013 22.2359 20.6667V24.0585C22.2359 25.924 23.7207 27.4415 25.5456 27.4415H36.6832V35.617ZM36.6832 25.0733H25.5456C24.9981 25.0733 24.5528 24.618 24.5528 24.0585V20.6667C24.5528 20.1072 24.9982 19.6519 25.5456 19.6519H36.6832V25.0733Z" fill="#5FA271"/>
<path d="M27.2195 23.9271C28.0648 23.9271 28.7501 23.2267 28.7501 22.3626C28.7501 21.4986 28.0648 20.7981 27.2195 20.7981C26.3741 20.7981 25.6889 21.4986 25.6889 22.3626C25.6889 23.2267 26.3741 23.9271 27.2195 23.9271Z" fill="#5FA271"/>
</svg>
