<svg width="209" height="46" viewBox="0 0 209 46" fill="none" xmlns="http://www.w3.org/2000/svg">
<path d="M17.1989 29.9392C16.0501 30.4897 13.8886 30.912 11.4323 30.912C4.72855 30.9098 0.453125 26.8073 0.453125 20.3293C0.453125 14.2811 4.60989 9.32642 12.3264 9.32642C14.0193 9.32642 15.8861 9.62053 17.2465 10.1333L16.2262 14.9146C15.4628 14.5752 14.3141 14.2811 12.6211 14.2811C9.22768 14.2811 7.02082 16.6943 7.06616 20.0804C7.06616 23.8435 9.61313 25.8797 12.7496 25.8797C14.2763 25.8797 15.4628 25.6233 16.4378 25.201L17.1989 29.9392Z" fill="#AD0F0A"/>
<path d="M11.4326 31.3608C8.02256 31.3608 5.14608 30.3276 3.11455 28.3736C1.08303 26.4197 0 23.6309 0 20.3293C0 17.1521 1.12762 14.2796 3.17426 12.2412C5.38566 10.0399 8.54934 8.87622 12.3191 8.87622C14.1118 8.87622 16.0104 9.18843 17.3995 9.71256L17.7622 9.84906L16.5515 15.5526L16.0421 15.3263C15.1548 14.9319 14.0015 14.7321 12.6207 14.7321C11.1371 14.7321 9.86892 15.2215 8.95368 16.1468C8.00669 17.1046 7.49654 18.4997 7.5177 20.0744C7.5177 23.33 9.57115 25.4287 12.7492 25.4287C14.1141 25.4287 15.2614 25.2191 16.2583 24.787L16.7911 24.5562L17.698 30.1971L17.3957 30.3427C16.0859 30.9709 13.8012 31.3608 11.4326 31.3608ZM12.3244 9.77741C4.43489 9.77741 0.906931 15.0775 0.906931 20.3293C0.906931 26.578 4.93748 30.4596 11.4326 30.4596C13.4611 30.4596 15.4722 30.1519 16.6981 29.6647L16.0791 25.8239C15.0966 26.164 14.0038 26.3307 12.7477 26.3307C9.07838 26.3307 6.61304 23.8187 6.61304 20.0804C6.58885 18.2705 7.19121 16.6446 8.309 15.5141C9.39807 14.4131 10.8885 13.8309 12.6169 13.8309C13.8806 13.8309 14.9787 13.9893 15.8917 14.3022L16.7185 10.4275C15.4783 10.0233 13.8352 9.77741 12.3244 9.77741Z" fill="#AD0F0A"/>
<path d="M20.7588 0.452393H27.2078V12.2999H27.291C27.9517 11.3851 28.8259 10.6448 29.8379 10.143C30.8748 9.61491 32.0219 9.33844 33.186 9.33611C37.2974 9.33611 40.4339 12.1717 40.4339 18.431V30.4896H33.9871V19.1074C33.9871 16.4001 33.0575 14.5374 30.639 14.5374C28.9461 14.5374 27.8805 15.6384 27.4194 16.8224C27.2532 17.207 27.2078 17.75 27.2078 18.2176V30.4873H20.7611V0.452393H20.7588Z" fill="#AD0F0A"/>
<path d="M40.8874 30.9384H33.5337V19.1075C33.5337 14.9884 31.3533 14.9884 30.6368 14.9884C28.7617 14.9884 28.0211 16.5171 27.8404 16.9861L27.8344 17.0012C27.7218 17.2622 27.6598 17.6943 27.6598 18.2177V30.9384H20.3076V0H27.6613V11.1695C28.2345 10.5852 28.9017 10.1008 29.6354 9.73664C30.7355 9.17651 31.9525 8.88326 33.1875 8.8807C35.4488 8.8807 37.3534 9.69517 38.6941 11.2359C40.1498 12.9078 40.8859 15.327 40.8859 18.4258L40.8874 30.9384ZM34.4406 30.0372H39.9805V18.4288C39.9805 12.9357 37.503 9.78491 33.1838 9.78491C32.0924 9.78603 31.0166 10.0444 30.0443 10.539L30.0367 10.5428C29.0901 11.014 28.2723 11.7076 27.6538 12.5639L27.5185 12.7487H26.7544V0.904963H21.2108V30.0372H26.7544V18.2177C26.7544 17.56 26.8368 17.0329 26.9993 16.6521C27.6281 15.0458 28.9869 14.088 30.6368 14.088C31.9503 14.088 32.9449 14.5827 33.5942 15.5593C34.1534 16.4002 34.4368 17.5955 34.4368 19.1083L34.4406 30.0372Z" fill="#AD0F0A"/>
<path d="M52.2592 4.04001C52.2592 5.81977 50.9442 7.25263 48.7827 7.25263C46.7496 7.25263 45.4346 5.81223 45.4346 4.04001C45.4346 2.22254 46.795 0.827393 48.8658 0.827393C50.9366 0.827393 52.2237 2.22254 52.2592 4.04001ZM45.6008 30.4875V9.80387H52.0476V30.4898L45.6008 30.4875Z" fill="#AD0F0A"/>
<path d="M52.4996 30.9383H45.1497V9.35116H52.4996V30.9383ZM46.0528 30.0371H51.5964V10.2561H46.0528V30.0371ZM48.7827 7.70338C46.5811 7.70338 44.9834 6.16268 44.9834 4.03979C44.9834 1.9169 46.6166 0.376953 48.8658 0.376953C51.0855 0.376953 52.6659 1.87919 52.7112 4.03074V4.03979C52.7112 5.04882 52.3333 5.97113 51.6463 6.63703C50.9268 7.33461 49.9368 7.70338 48.7827 7.70338ZM48.8658 1.27815C47.1117 1.28192 45.8866 2.41312 45.8866 4.03979C45.8866 5.64082 47.1049 6.80219 48.7827 6.80219C50.5905 6.80219 51.8058 5.69436 51.8058 4.04507C51.7703 2.38974 50.5897 1.28192 48.8658 1.28192V1.27815Z" fill="#AD0F0A"/>
<path d="M57.2171 16.7418C57.2171 14.0345 57.1339 11.7494 57.0508 9.80377H62.6533L62.9481 12.6846H63.0312C64.5579 10.5277 66.931 9.34375 69.9466 9.34375C74.4812 9.34375 78.5549 13.2803 78.5549 19.879C78.5549 27.4128 73.7633 30.9648 69.1379 30.9648C66.6363 30.9648 64.6864 29.9467 63.7492 28.5968H63.6661V38.8757H57.2193V16.7418H57.2171ZM63.6638 21.606C63.6617 22.0616 63.7048 22.5163 63.7923 22.9634C64.2155 24.698 65.6969 26.0101 67.5636 26.0101C70.36 26.0101 72.0151 23.6799 72.0151 20.1731C72.0151 16.87 70.5338 14.3738 67.6468 14.3738C65.8253 14.3738 64.2155 15.7313 63.7847 17.6317C63.6989 18.0052 63.6558 18.3872 63.6563 18.7704L63.6638 21.606Z" fill="#AD0F0A"/>
<path d="M64.1159 39.3244H56.766V16.7418C56.766 14.0737 56.6866 11.84 56.6005 9.8234L56.5801 9.35358H63.0593L63.2929 11.6341C64.9148 9.83698 67.1934 8.89355 69.9437 8.89355C72.3697 8.89355 74.6235 9.94029 76.2884 11.8407C78.0653 13.8678 79.0039 16.6476 79.0039 19.879C79.0039 27.8058 73.8881 31.4173 69.135 31.4173C67.1458 31.4173 65.3199 30.7733 64.1152 29.6881L64.1159 39.3244ZM57.6691 38.4195H63.2128V28.1444H63.9837L64.1182 28.3382C65.0493 29.679 66.972 30.5124 69.1358 30.5124C73.4543 30.5124 78.1016 27.1844 78.1016 19.879C78.1016 13.2585 73.9984 9.79475 69.9445 9.79475C67.1209 9.79475 64.8573 10.8837 63.3979 12.9448L63.2634 13.1356H62.5386L62.2439 10.2548H57.5218C57.5973 12.1582 57.6691 14.2622 57.6691 16.7403V38.4195ZM67.566 26.4589C65.5746 26.4589 63.8438 25.0645 63.3564 23.0653L63.3518 23.0442C63.2585 22.5687 63.2127 22.0852 63.215 21.6007L63.2075 18.7667C63.2068 18.3484 63.254 17.9315 63.3481 17.5239C63.8234 15.4342 65.632 13.9184 67.6492 13.9184C69.1736 13.9184 70.4312 14.5586 71.286 15.7705C72.0599 16.8685 72.4695 18.3896 72.4695 20.1679C72.4695 22.0057 72.0312 23.5615 71.2028 24.6708C70.3276 25.8412 69.07 26.4589 67.566 26.4589ZM64.2338 22.8654C64.6314 24.4763 65.9721 25.5577 67.5638 25.5577C70.0314 25.5577 71.5641 23.4936 71.5641 20.1709C71.5641 18.5789 71.2119 17.2381 70.5445 16.2924C69.8568 15.3165 68.8818 14.8226 67.6469 14.8226C66.0462 14.8226 64.6072 16.045 64.2255 17.729V17.7365C64.1482 18.075 64.1094 18.4211 64.1099 18.7682L64.1174 21.6038C64.1147 22.0271 64.1537 22.4497 64.2338 22.8654Z" fill="#AD0F0A"/>
<path d="M119.644 24.9067C120.831 25.6232 123.295 26.4301 125.199 26.4301C127.149 26.4301 127.958 25.7966 127.958 24.7408C127.958 23.6398 127.323 23.1345 124.95 22.3276C120.627 20.8872 118.972 18.5645 119.009 16.106C119.009 12.2146 122.32 9.29614 127.451 9.29614C129.87 9.29614 131.986 9.89191 133.263 10.5254L132.16 14.9672C131.23 14.462 129.401 13.7832 127.663 13.7832C126.091 13.7832 125.207 14.4167 125.207 15.4348C125.207 16.4529 126.015 16.9582 128.555 17.848C132.5 19.2055 134.11 21.2341 134.155 24.2356C134.155 28.1269 131.147 30.9625 125.207 30.9625C122.493 30.9625 120.075 30.329 118.503 29.4844L119.644 24.9067Z" fill="white"/>
<path d="M125.207 31.4136C122.623 31.4136 120.102 30.8548 118.29 29.8812L117.981 29.7153L119.355 24.2079L119.879 24.5239C121.041 25.2252 123.405 25.9823 125.2 25.9823C127.507 25.9823 127.507 25.0827 127.507 24.7433C127.507 24.0012 127.252 23.5887 124.805 22.7569C119.585 21.0179 118.527 18.1778 118.559 16.1017C118.559 11.834 122.216 8.84839 127.452 8.84839C129.606 8.84839 131.854 9.32576 133.465 10.1244L133.79 10.2858L132.458 15.6447L131.945 15.3656C131.174 14.9463 129.403 14.2344 127.664 14.2344C127.059 14.2344 125.659 14.3513 125.659 15.435C125.659 16.0843 126.083 16.5044 128.705 17.4237C130.746 18.1243 132.2 19.0073 133.164 20.1333C134.112 21.2396 134.585 22.5797 134.61 24.229C134.61 26.3572 133.779 28.1505 132.192 29.4099C130.553 30.7206 128.138 31.4136 125.207 31.4136ZM119.029 29.2462C120.672 30.0426 122.95 30.5124 125.207 30.5124C130.528 30.5124 133.705 28.1663 133.705 24.2358C133.661 21.3218 132.077 19.5368 128.409 18.2743C125.832 17.3694 124.756 16.7781 124.756 15.435C124.756 14.4192 125.52 13.3332 127.664 13.3332C129.26 13.3332 130.872 13.8702 131.857 14.3136L132.736 10.7752C131.905 10.411 130.022 9.74506 127.452 9.74506C122.747 9.74506 119.462 12.3596 119.462 16.1039C119.423 18.6567 121.37 20.6582 125.094 21.8987C127.388 22.6785 128.41 23.2735 128.41 24.7388C128.41 25.7154 127.853 26.879 125.2 26.879C123.467 26.879 121.317 26.2584 119.943 25.5789L119.029 29.2462Z" fill="white"/>
<path d="M145.296 4.21338V9.80379H149.921V14.5398H145.296V22.0283C145.296 24.5245 145.93 25.6708 147.843 25.6708C148.734 25.6708 149.158 25.6255 149.747 25.5049L149.792 30.3691C148.984 30.6632 147.419 30.9196 145.636 30.9196C143.557 30.9196 141.819 30.2031 140.761 29.1398C139.574 27.9106 138.977 25.9272 138.977 23.0012V14.5375H136.219V9.80379H138.977V5.94789L145.296 4.21338Z" fill="white"/>
<path d="M145.638 31.3721C143.546 31.3721 141.652 30.6745 140.442 29.4588C139.153 28.1225 138.528 26.0124 138.528 23.0027V14.9885H135.77V9.3513H138.528V5.60476L145.747 3.61987V9.3513H150.373V14.9885H145.747V22.0261C145.747 24.6957 146.515 25.2183 147.842 25.2183C148.739 25.2183 149.127 25.17 149.656 25.0615L150.194 24.9513L150.247 30.6828L149.945 30.7921C148.982 31.1413 147.29 31.3721 145.638 31.3721ZM136.67 14.0873H139.429V23.0012C139.429 25.7666 139.971 27.6723 141.086 28.8276C142.123 29.8638 143.783 30.4671 145.638 30.4671C147.191 30.4671 148.547 30.265 149.341 30.0395L149.304 26.0388C148.82 26.1012 148.333 26.1281 147.845 26.1195C145.2 26.1195 144.847 24.0502 144.847 22.0261V14.0873H149.472V10.2563H144.847V4.80462L139.432 6.29177V10.2563H136.673L136.67 14.0873Z" fill="white"/>
<path d="M170.909 25.4951C170.909 27.4408 170.993 29.3488 171.249 30.4875H165.44L165.062 28.4136H164.933C163.573 30.0652 161.457 30.9551 158.993 30.9551C154.798 30.9551 152.297 27.9084 152.297 24.6052C152.297 19.2283 157.134 16.6944 164.465 16.6944V16.4402C164.465 15.3015 163.868 13.7329 160.694 13.7329C158.577 13.7329 156.325 14.4493 154.972 15.3015L153.786 11.1537C155.229 10.3468 158.071 9.29102 161.842 9.29102C168.758 9.29102 170.919 13.3558 170.919 18.2652V25.4974L170.909 25.4951ZM164.674 20.7139C161.281 20.7139 158.651 21.5208 158.651 23.9718C158.651 25.6233 159.754 26.4227 161.198 26.4227C162.77 26.4227 164.122 25.3669 164.546 24.0547C164.632 23.6941 164.675 23.3245 164.674 22.9537V20.7139Z" fill="white"/>
<path d="M158.99 31.4061C156.887 31.4061 155.073 30.6896 153.747 29.3337C152.515 28.0682 151.831 26.3697 151.843 24.6053C151.843 21.8353 153.037 19.6966 155.395 18.2502C157.476 16.9719 160.371 16.2992 164.007 16.2472C163.914 14.8762 162.798 14.1816 160.693 14.1816C158.552 14.1816 156.398 14.9357 155.213 15.6808L154.704 16.0013L153.251 10.9351L153.562 10.7608C154.369 10.3084 157.347 8.84082 161.84 8.84082C168.073 8.84082 171.368 12.1002 171.368 18.2675V25.9461H171.362C171.377 27.9695 171.489 29.4996 171.69 30.3887L171.814 30.9385H165.061L164.759 29.2673C163.327 30.6519 161.31 31.4061 158.99 31.4061ZM164.462 17.1454C160.087 17.1454 152.748 18.1144 152.748 24.6053C152.748 27.5373 154.892 30.5049 158.992 30.5049C161.335 30.5049 163.321 29.661 164.585 28.1278L164.72 27.9634H165.439L165.817 30.0373H170.709C170.544 28.9883 170.461 27.465 170.461 25.4952V25.0427H170.468V18.263C170.468 12.607 167.566 9.74126 161.843 9.74126C158.027 9.74126 155.383 10.8423 154.32 11.38L155.248 14.6228C156.596 13.9162 158.654 13.2812 160.694 13.2812C164.505 13.2812 164.917 15.4893 164.917 16.4387V17.1461L164.462 17.1454ZM161.197 26.8737C159.376 26.8737 158.199 25.735 158.199 23.9718C158.199 22.6528 158.89 21.6302 160.197 21.0163C161.261 20.5171 162.767 20.2622 164.674 20.2622H165.127V22.9522C165.128 23.3585 165.08 23.7635 164.986 24.1588L164.977 24.1897C164.474 25.7463 162.886 26.8737 161.197 26.8737ZM164.22 21.1694C160.819 21.2448 159.1 22.1868 159.1 23.9718C159.1 25.7772 160.565 25.9725 161.195 25.9725C162.496 25.9725 163.719 25.1151 164.108 23.9364C164.184 23.615 164.221 23.286 164.22 22.956V21.1694Z" fill="white"/>
<path d="M176.04 16.6114C176.04 13.5647 175.995 11.5737 175.874 9.80152H181.386L181.643 13.6099H181.809C182.867 10.5632 185.369 9.29625 187.409 9.29625C187.866 9.29155 188.322 9.33452 188.77 9.42445V15.4726C188.196 15.3659 187.615 15.3104 187.032 15.3067C184.658 15.3067 183.049 16.5737 182.618 18.5646C182.53 19.0396 182.487 19.5219 182.489 20.005V30.4874H176.043L176.04 16.6114Z" fill="white"/>
<path d="M182.94 30.9385H175.59V16.6099C175.59 13.5179 175.542 11.5504 175.424 9.83097L175.392 9.34983H181.807L181.993 12.1107C183.364 9.72765 185.664 8.84456 187.408 8.84456C187.89 8.83992 188.371 8.88516 188.844 8.97955L189.216 9.04592V16.0021L188.692 15.9161C188.143 15.814 187.587 15.7604 187.029 15.7562C184.937 15.7562 183.453 16.8392 183.057 18.6544C182.976 19.0995 182.937 19.5511 182.939 20.0035L182.94 30.9385ZM176.493 30.0373H182.036V20.0073C182.034 19.4951 182.079 18.9838 182.173 18.4802V18.4719C182.41 17.3769 182.98 16.4636 183.822 15.8324C184.663 15.2012 185.778 14.8595 187.028 14.8595C187.458 14.8596 187.887 14.8898 188.313 14.95V9.80382C188.013 9.76046 187.71 9.74054 187.406 9.74425C185.663 9.74425 183.261 10.7948 182.233 13.7547L182.128 14.0564H181.221L180.964 10.248H176.357C176.454 11.8777 176.494 13.7728 176.494 16.6069L176.493 30.0373Z" fill="white"/>
<path d="M192.108 24.9067C193.295 25.6232 195.758 26.4301 197.663 26.4301C199.613 26.4301 200.422 25.7966 200.422 24.7408C200.422 23.6398 199.787 23.1345 197.414 22.3276C193.091 20.8872 191.435 18.5645 191.473 16.106C191.473 12.2146 194.783 9.29614 199.915 9.29614C202.334 9.29614 204.45 9.89191 205.727 10.5254L204.624 14.9672C203.694 14.462 201.865 13.7832 200.127 13.7832C198.555 13.7832 197.671 14.4167 197.671 15.4348C197.671 16.4529 198.479 16.9582 201.019 17.848C204.964 19.2055 206.574 21.2341 206.619 24.2356C206.619 28.1269 203.611 30.9625 197.671 30.9625C194.957 30.9625 192.539 30.329 190.967 29.4844L192.108 24.9067Z" fill="white"/>
<path d="M197.671 31.4136C195.087 31.4136 192.566 30.8548 190.754 29.8812L190.445 29.7153L191.816 24.2079L192.341 24.5239C193.502 25.2252 195.867 25.9823 197.661 25.9823C199.969 25.9823 199.969 25.0827 199.969 24.7433C199.969 24.0012 199.713 23.5887 197.267 22.7569C192.047 21.0179 190.989 18.1778 191.02 16.1017C191.02 11.834 194.678 8.84839 199.914 8.84839C202.068 8.84839 204.315 9.32576 205.927 10.1244L206.252 10.2858L204.92 15.6447L204.407 15.3656C203.635 14.9463 201.865 14.2344 200.125 14.2344C199.521 14.2344 198.121 14.3513 198.121 15.435C198.121 16.0843 198.544 16.5044 201.167 17.4237C203.203 18.1243 204.661 19.0073 205.626 20.1333C206.574 21.2396 207.047 22.5797 207.072 24.229C207.072 26.3572 206.24 28.1505 204.653 29.4099C203.017 30.7206 200.602 31.4136 197.671 31.4136ZM191.493 29.2462C193.137 30.0426 195.414 30.5124 197.671 30.5124C202.992 30.5124 206.168 28.1663 206.168 24.2358C206.125 21.3218 204.541 19.5368 200.873 18.2743C198.296 17.3694 197.22 16.7781 197.22 15.435C197.22 14.4192 197.984 13.3332 200.128 13.3332C201.724 13.3332 203.336 13.8702 204.321 14.3136L205.2 10.7752C204.369 10.411 202.486 9.74506 199.916 9.74506C195.211 9.74506 191.926 12.3596 191.926 16.1039C191.887 18.6567 193.834 20.6582 197.558 21.8987C199.852 22.6785 200.874 23.2735 200.874 24.7388C200.874 25.7154 200.317 26.879 197.664 26.879C195.931 26.879 193.781 26.2584 192.407 25.5789L191.493 29.2462Z" fill="white"/>
<path d="M116.894 16.0458C113.228 7.62215 102.413 2.40353 92.7545 4.37937C83.0957 6.3552 78.2232 14.7812 81.894 23.1951C85.5648 31.6089 96.3747 36.8374 106.033 34.8615C115.692 32.8857 120.567 24.4545 116.894 16.0458ZM112.216 22.735L115.496 24.4394C114.68 26.6188 113.145 28.5419 111.022 29.9521L108.58 26.6867C106.547 27.8858 104.099 28.4061 101.741 28.376L102.013 32.4935C98.6983 32.4857 95.4344 31.6812 92.4975 30.1482L94.7422 26.7018C92.4975 25.6083 90.5401 24.0171 89.2099 22.0638L85.3252 23.5872C83.9573 21.2871 83.2242 18.6476 83.5114 15.9704L87.4565 16.1062C87.5926 14.2812 88.371 12.5919 89.6709 11.2269L86.6176 9.53011C88.1065 8.02938 90.0639 6.84539 92.4295 6.12896L94.2056 8.52711C96.0119 7.97659 97.9165 7.82577 99.8059 7.99168V5.48795C102.183 5.75527 104.497 6.42873 106.646 7.47886L105.414 9.53765C107.205 10.3823 108.815 11.5437 110.084 12.9463L112.518 11.8755C114.007 13.5572 115.156 15.533 115.738 17.6899L112.654 17.7049C113.069 19.3839 112.915 21.1528 112.216 22.735Z" fill="#AD0F0A"/>
<path d="M110.001 23.3081C106.796 23.9566 104.113 22.7274 102.05 19.3338C103.07 20.2614 104.559 20.8797 106.139 20.9024C108.822 20.9401 110.749 19.281 110.462 17.192C110.175 15.1031 107.756 13.3836 105.073 13.3459C104.495 13.3353 103.919 13.4142 103.365 13.5797C103.412 13.303 103.417 13.0209 103.38 12.7426C103.108 10.8874 100.894 9.38672 98.4374 9.38672C95.9811 9.38672 94.1975 10.895 94.4696 12.7426C94.5829 13.5194 95.0364 14.2434 95.709 14.809H95.2707C92.4516 14.907 90.4186 16.7999 90.7285 19.0472C91.0383 21.2945 93.5778 23.029 96.3968 22.9385C98.4903 22.8707 100.599 21.4303 101.272 19.922C102.413 23.2477 100.871 25.397 97.2206 26.2869L97.2735 27.1466L110.492 24.0622L110.001 23.3081Z" fill="white"/>
<path d="M99.1576 2.84093C85.8862 1.16675 73.0305 11.2345 79.4394 25.1181C83.9136 34.8238 96.2328 40.9172 107.018 38.1118C122.42 34.1074 124.189 18.6929 113.404 9.236C125.882 18.7984 123.94 36.2944 107.464 39.9067C95.938 42.4406 82.8102 36.219 78.132 26.0155C71.398 11.3023 85.0926 0.586067 99.1576 2.84093Z" fill="white"/>
<path d="M99.2538 2.97647C86.6701 1.37771 74.4719 10.9854 80.5484 24.2431C84.7958 33.5039 96.601 39.1599 106.917 36.8598C121.678 33.5717 123 18.112 112.767 9.08497C124.603 18.21 122.766 34.9141 107.129 38.3605C96.2005 40.7813 83.7453 34.8462 79.3089 25.1028C72.9226 11.0533 85.9144 0.819645 99.2538 2.97647Z" fill="white"/>
</svg>
