<svg width="34" height="40" viewBox="0 0 34 40" fill="none" xmlns="http://www.w3.org/2000/svg">
<path d="M16.5636 19.2681C19.2316 19.2681 21.5416 18.3187 23.4296 16.4456C25.317 14.5727 26.2743 12.2812 26.2743 9.63377C26.2743 6.98729 25.3173 4.69542 23.4293 2.82195C21.5413 0.9494 19.2313 0 16.5636 0C13.8952 0 11.5855 0.9494 9.69783 2.82226C7.81014 4.69512 6.85292 6.98698 6.85292 9.63377C6.85292 12.2812 7.81014 14.573 9.69783 16.4459C11.5861 18.3184 13.8962 19.2681 16.5636 19.2681ZM11.3687 4.47967C12.8171 3.0426 14.5163 2.34405 16.5636 2.34405C18.6106 2.34405 20.3101 3.0426 21.7588 4.47967C23.2073 5.91704 23.9116 7.60313 23.9116 9.63377C23.9116 11.665 23.2073 13.3508 21.7588 14.7882C20.3101 16.2255 18.6106 16.9241 16.5636 16.9241C14.5169 16.9241 12.8177 16.2252 11.3687 14.7882C9.91991 13.3511 9.21553 11.665 9.21553 9.63377C9.21553 7.60313 9.91991 5.91704 11.3687 4.47967Z" fill="#6D4ACD"/>
<path d="M33.5549 30.7581C33.5004 29.9787 33.3903 29.1284 33.2282 28.2306C33.0646 27.3261 32.8539 26.471 32.6016 25.6894C32.3408 24.8816 31.9868 24.0839 31.5484 23.3194C31.0941 22.526 30.5601 21.8351 29.961 21.2665C29.3344 20.6717 28.5673 20.1935 27.6802 19.8447C26.7961 19.4977 25.8165 19.3219 24.7685 19.3219C24.3569 19.3219 23.9589 19.4895 23.1903 19.986C22.7172 20.2921 22.1638 20.6461 21.5462 21.0376C21.018 21.3715 20.3026 21.6843 19.4189 21.9675C18.5567 22.2443 17.6813 22.3847 16.817 22.3847C15.9532 22.3847 15.0778 22.2443 14.215 21.9675C13.3322 21.6846 12.6165 21.3718 12.0893 21.0379C11.4775 20.6501 10.9238 20.2961 10.4437 19.9857C9.6756 19.4892 9.27758 19.3216 8.86602 19.3216C7.81775 19.3216 6.83838 19.4977 5.95466 19.845C5.06819 20.1932 4.30075 20.6714 3.67357 21.2668C3.07438 21.8357 2.5404 22.5263 2.08639 23.3194C1.64869 24.0839 1.29435 24.8813 1.03351 25.6897C0.78159 26.4713 0.57089 27.3261 0.407251 28.2306C0.244843 29.1272 0.135033 29.9777 0.080589 30.759C0.0270681 31.5228 0 32.3178 0 33.121C0 35.2091 0.669012 36.8994 1.98827 38.1461C3.29123 39.3762 5.01497 40 7.11182 40H26.5245C28.6208 40 30.3445 39.3762 31.6478 38.1461C32.9674 36.9003 33.6364 35.2094 33.6364 33.1207C33.6361 32.3148 33.6087 31.5198 33.5549 30.7581ZM30.0188 36.4478C29.1578 37.2607 28.0148 37.6559 26.5242 37.6559H7.11182C5.62093 37.6559 4.47792 37.2607 3.61728 36.4481C2.77294 35.6506 2.36261 34.5621 2.36261 33.121C2.36261 32.3715 2.38753 31.6315 2.43736 30.921C2.48595 30.224 2.58531 29.4583 2.73264 28.6447C2.87813 27.8412 3.0633 27.0871 3.28354 26.4044C3.49485 25.7498 3.78307 25.1017 4.14049 24.4773C4.48161 23.8822 4.8741 23.3716 5.30718 22.9602C5.71228 22.5754 6.22288 22.2605 6.82453 22.0243C7.38097 21.8058 8.0063 21.6861 8.68515 21.6681C8.7679 21.7118 8.91523 21.7951 9.15392 21.9495C9.63961 22.2635 10.1994 22.6218 10.8183 23.014C11.5159 23.4552 12.4147 23.8538 13.4885 24.1977C14.5863 24.5499 15.7059 24.7287 16.8173 24.7287C17.9286 24.7287 19.0485 24.5499 20.1457 24.198C21.2204 23.8535 22.1189 23.4552 22.8174 23.0133C23.4508 22.6117 23.9949 22.2638 24.4806 21.9495C24.7193 21.7954 24.8666 21.7118 24.9494 21.6681C25.6285 21.6861 26.2539 21.8058 26.8106 22.0243C27.4119 22.2605 27.9225 22.5757 28.3276 22.9602C28.7607 23.3713 29.1532 23.8819 29.4943 24.4776C29.8521 25.1017 30.1406 25.7502 30.3516 26.4041C30.5721 27.0877 30.7576 27.8415 30.9028 28.6444C31.0498 29.4596 31.1495 30.2255 31.1981 30.9213C31.2482 31.629 31.2734 32.3694 31.2738 33.121C31.2734 34.5624 30.8631 35.6506 30.0188 36.4478Z" fill="#6D4ACD"/>
</svg>
